:version 1.10
:name ASF
:units
  mass 1
  length 1
  angle deg
:documentation
  ASF file generated by Kaydara
:root
  axis xyz
  order  tx ty tz rx ry rz
  position 0 0 0
  orientation 0 0 0
:bonedata
  begin
    id 1
    name RightUpLegDummy
    direction -1 2.30186e-007 8.31532e-007
    length 4.04083
    axis 0 0 0 xyz
  end
  begin
    id 2
    name RightUpLeg
    direction -0.000919234 -0.999985 0.00544864
    length 17.4221
    axis -3.80308 -0.00076134 -0.0523649 xyz
    dof rx ry rz
  end
  begin
    id 3
    name RightLeg
    direction -0.000919271 -0.999984 -0.00555045
    length 17.1239
    axis 4.00314 0.0181274 -0.183583 xyz
    dof rx ry rz
  end
  begin
    id 4
    name RightFoot
    direction -2.57843e-005 -4.04509e-007 1
    length 6.72091
    axis 8.18909e-005 -0.122003 -0.403008 xyz
    dof rx ry rz
  end
  begin
    id 5
    name RightToes
    direction 0.00116825 -0.014069 0.9999
    length 3.85082
    axis 0.000514414 0.540638 -0.356797 xyz
    dof rx ry rz
  end
  begin
    id 6
    name SpineDummy
    direction 0.0168869 0.966876 -0.254689
    length 6.99894
    axis 0 0 0 xyz
  end
  begin
    id 7
    name Spine
    direction -0.0132008 0.999903 0.00446247
    length 11.1999
    axis -0.00148109 0.00725429 0.756411 xyz
    dof rx ry rz
  end
  begin
    id 8
    name Spine1
    direction 0 0 0
    length 0
    axis -0.000934958 0.0245693 1.46543 xyz
    dof rx ry rz
  end
  begin
    id 9
    name HEadDummy
    direction -0.0255732 0.999672 0.00128215
    length 3.43865
    axis -0.000934958 0.0245693 1.46543 xyz
  end
  begin
    id 10
    name HEad
    direction -0.0472656 0.980052 0.19304
    length 5.12695
    axis -0.000934954 0.0245693 1.46543 xyz
    dof rx ry rz
  end
  begin
    id 11
    name LeftShoulder1Dummy
    direction 0.953098 0.301717 -0.023914
    length 3.68488
    axis -0.000934958 0.0245693 1.46543 xyz
  end
  begin
    id 12
    name LeftShoulder1
    direction 0.962466 0.271167 0.0112566
    length 3.13809
    axis -0.000934958 0.0245693 1.46543 xyz
    dof rx ry rz
  end
  begin
    id 13
    name LeftArm
    direction 0.999943 0.00455037 -0.00961766
    length 11.3419
    axis -23.1648 0.685459 1.22814 xyz
    dof rx ry rz
  end
  begin
    id 14
    name LeftForeArm
    direction 0.999332 0.0131969 0.0340885
    length 8.70632
    axis -9.90633 0.618216 0.0826942 xyz
    dof rx ry rz
  end
  begin
    id 15
    name LeftHand
    direction 0.994373 -0.0366703 0.0993905
    length 5.32135
    axis 0.00675269 0.680415 0.445699 xyz
    dof rx ry rz
  end
  begin
    id 16
    name RightShoulderDummy
    direction -0.967298 0.252589 -0.0230903
    length 3.68488
    axis -0.000934958 0.0245693 1.46543 xyz
  end
  begin
    id 17
    name RightShoulder
    direction -0.975062 0.221602 0.0120823
    length 3.13809
    axis 0.216257 0.0246515 1.45863 xyz
    dof rx ry rz
  end
  begin
    id 18
    name RightArm
    direction -0.99886 -0.00851186 -0.0469687
    length 10.3947
    axis -23.196 0.23503 -0.532632 xyz
    dof rx ry rz
  end
  begin
    id 19
    name RightForeArm
    direction -0.99909 0.00114866 0.0426317
    length 8.68355
    axis -9.91764 -0.134943 0.610517 xyz
    dof rx ry rz
  end
  begin
    id 20
    name RightHand
    direction -0.992888 -0.0489538 0.10852
    length 5.28593
    axis -0.00275396 -0.197403 0.246414 xyz
    dof rx ry rz
  end
  begin
    id 21
    name LeftUpLegDummy
    direction 1 -2.30186e-007 -8.31532e-007
    length 4.04083
    axis 0 0 0 xyz
  end
  begin
    id 22
    name LeftUpLeg
    direction -0.000920097 -1 2.79241e-006
    length 17.4221
    axis -3.48782 0.00143434 -0.0532288 xyz
    dof rx ry rz
  end
  begin
    id 23
    name LeftLeg
    direction -0.000920097 -1 2.7912e-006
    length 17.1239
    axis 3.68162 -0.00806512 -0.0529896 xyz
    dof rx ry rz
  end
  begin
    id 24
    name LeftFoot
    direction -2.57845e-005 -3.987e-007 1
    length 6.72091
    axis 3.02372e-005 -0.00147829 -0.214229 xyz
    dof rx ry rz
  end
  begin
    id 25
    name LeftToes
    direction 0.00813577 -0.00488255 0.999955
    length 3.85048
    axis 3.89895e-005 -0.0014783 -0.214229 xyz
    dof rx ry rz
  end
:hierarchy
  begin
    root RightUpLegDummy SpineDummy LeftUpLegDummy
    RightUpLegDummy RightUpLeg
    RightUpLeg RightLeg
    RightLeg RightFoot
    RightFoot RightToes
    SpineDummy Spine
    Spine Spine1
    Spine1 HEadDummy LeftShoulder1Dummy RightShoulderDummy
    HEadDummy HEad
    LeftShoulder1Dummy LeftShoulder1
    LeftShoulder1 LeftArm
    LeftArm LeftForeArm
    LeftForeArm LeftHand
    RightShoulderDummy RightShoulder
    RightShoulder RightArm
    RightArm RightForeArm
    RightForeArm RightHand
    LeftUpLegDummy LeftUpLeg
    LeftUpLeg LeftLeg
    LeftLeg LeftFoot
    LeftFoot LeftToes
  end

:SAMPLES-PER-SECOND 30
:FULLY-SPECIFIED
:DEGREES
66
root  -41.7909 34.8382 11.969 -169.852 59.0969 -179.725
RightUpLeg  -7.27922 -16.1926 -0.771272
RightLeg  2.83145 -1.7407 0.0252671
RightFoot  6.48966 0.0314679 -0.0456395
RightToes  -27.2191 -0.116252 -0.232038
Spine  -2.50018 -0.198395 0.407559
Spine1  -5.05757 -0.294555 1.45814
HEad  -68.2593 -0.775006 6.89036
LeftShoulder1  -1.94126e-019 -3.10601e-018 -2.51263e-017
LeftArm  -14.4259 23.836 -83.3009
LeftForeArm  32.7134 -15.2239 -2.5286
LeftHand  -0.445061 -1.41963 7.75082
RightShoulder  -4.96962e-017 0 -2.36833e-017
RightArm  -22.3708 -21.9627 75.0082
RightForeArm  58.5593 14.29 1.18466
RightHand  -0.35629 -1.29967 -10.0141
LeftUpLeg  -7.52568 5.88126 1.85879
LeftLeg  3.58216 13.0691 -0.0230263
LeftFoot  6.54712 -0.0926572 1.65518
LeftToes  -23.8623 1.9075e-006 4.29692e-008
67
root  -41.7885 34.8355 11.9656 -169.852 59.1437 -179.726
RightUpLeg  -7.29734 -16.1722 -0.775283
RightLeg  2.86265 -1.72801 0.0251623
RightFoot  6.46593 0.0307685 -0.0445495
RightToes  -27.2423 -0.115703 -0.232038
Spine  -2.48594 -0.189466 0.409289
Spine1  -5.02942 -0.276421 1.46274
HEad  -68.4173 -0.779186 6.88153
LeftShoulder1  -1.94126e-019 -3.10601e-018 -2.51263e-017
LeftArm  -14.441 23.8345 -83.2828
LeftForeArm  32.7148 -15.1812 -2.52097
LeftHand  -0.445136 -1.4055 7.74789
RightShoulder  -4.96962e-017 0 -2.36833e-017
RightArm  -22.4186 -21.9707 75.0133
RightForeArm  58.5709 14.2565 1.18949
RightHand  -0.353958 -1.32717 -10.0119
LeftUpLeg  -7.51399 5.83612 1.85682
LeftLeg  3.59558 13.1627 -0.0201306
LeftFoot  6.48678 -0.0923427 1.65207
LeftToes  -23.7628 1.9075e-006 4.29692e-008
68
root  -41.7852 34.8341 11.96 -169.853 59.2058 -179.731
RightUpLeg  -7.31646 -16.1295 -0.78758
RightLeg  2.90133 -1.71182 0.0241776
RightFoot  6.43834 0.0299127 -0.04223
RightToes  -27.2784 -0.115181 -0.232038
Spine  -2.46772 -0.17431 0.413761
Spine1  -4.99336 -0.245627 1.47281
HEad  -68.478 -0.779292 6.82678
LeftShoulder1  -1.94126e-019 -3.10601e-018 -2.51263e-017
LeftArm  -14.4107 23.8043 -83.2688
LeftForeArm  32.7562 -15.0587 -2.50135
LeftHand  -0.444356 -1.41208 7.79506
RightShoulder  -4.96962e-017 0 -2.36833e-017
RightArm  -22.4488 -21.9763 75.0163
RightForeArm  58.6617 14.2432 1.19189
RightHand  -0.357177 -1.26425 -9.95698
LeftUpLeg  -7.50366 5.83669 1.84689
LeftLeg  3.61429 13.212 -0.0159293
LeftFoot  6.46999 -0.0920144 1.64985
LeftToes  -23.9054 1.9075e-006 4.29692e-008
69
root  -41.7846 34.8324 11.9532 -169.859 59.3126 -179.744
RightUpLeg  -7.33385 -16.0054 -0.816686
RightLeg  2.91879 -1.71335 0.0236796
RightFoot  6.42753 0.02896 -0.0395813
RightToes  -27.2632 -0.114691 -0.232038
Spine  -2.44338 -0.157277 0.423097
Spine1  -4.9448 -0.210812 1.49401
HEad  -68.542 -0.76457 6.6671
LeftShoulder1  -1.94126e-019 -3.10601e-018 -2.51263e-017
LeftArm  -14.3215 23.8094 -83.2512
LeftForeArm  32.6539 -15.0115 -2.49086
LeftHand  -0.445514 -1.39447 7.74958
RightShoulder  -4.96962e-017 0 -2.36833e-017
RightArm  -22.4209 -21.941 75.0085
RightForeArm  58.7376 14.2452 1.1916
RightHand  -0.363059 -1.22688 -10.0365
LeftUpLeg  -7.48332 5.93769 1.82078
LeftLeg  3.60935 13.1968 -0.0170399
LeftFoot  6.42945 -0.0916306 1.64797
LeftToes  -23.8581 1.9075e-006 4.29692e-008
70
root  -41.7852 34.832 11.9486 -169.868 59.4169 -179.762
RightUpLeg  -7.41678 -15.8457 -0.837763
RightLeg  3.06228 -1.78044 0.0201484
RightFoot  6.32042 0.0279695 -0.0375039
RightToes  -27.216 -0.114239 -0.232038
Spine  -2.41153 -0.154358 0.435851
Spine1  -4.88144 -0.203319 1.52446
HEad  -68.5602 -0.681071 6.49971
LeftShoulder1  -1.94126e-019 -3.10601e-018 -2.51263e-017
LeftArm  -14.3458 23.7584 -83.2655
LeftForeArm  32.6918 -14.8217 -2.46186
LeftHand  -0.444987 -1.38308 7.78435
RightShoulder  -4.96962e-017 0 -2.36833e-017
RightArm  -22.4135 -21.8569 74.9982
RightForeArm  58.7295 14.2532 1.19045
RightHand  -0.36833 -1.17937 -10.0743
LeftUpLeg  -7.45998 5.98244 1.79897
LeftLeg  3.59622 13.244 -0.0197376
LeftFoot  6.39859 -0.0911823 1.64635
LeftToes  -23.8344 1.9075e-006 4.29692e-008
71
root  -41.7864 34.8321 11.9443 -169.848 59.5473 -179.741
RightUpLeg  -7.59862 -15.6592 -0.846119
RightLeg  3.39898 -1.82792 0.00998456
RightFoot  6.1544 0.0270008 -0.0368981
RightToes  -27.2722 -0.113828 -0.232038
Spine  -2.37116 -0.158405 0.453577
Spine1  -4.80102 -0.209831 1.56137
HEad  -68.5202 -0.618563 6.35207
LeftShoulder1  -1.94126e-019 -3.10601e-018 -2.51263e-017
LeftArm  -14.3394 23.7326 -83.2649
LeftForeArm  32.8025 -14.6953 -2.44023
LeftHand  -0.44548 -1.39473 7.78308
RightShoulder  -4.96962e-017 0 -2.36833e-017
RightArm  -22.3249 -21.7325 74.9915
RightForeArm  58.7114 14.2875 1.18306
RightHand  -0.370302 -1.1805 -10.0074
LeftUpLeg  -7.42933 6.05985 1.79373
LeftLeg  3.57986 13.3014 -0.0239477
LeftFoot  6.39739 -0.0906606 1.64494
LeftToes  -23.9679 1.9075e-006 4.29692e-008
72
root  -41.787 34.8317 11.9454 -169.826 59.7505 -179.694
RightUpLeg  -7.93835 -15.3369 -0.847317
RightLeg  4.07563 -1.92779 -0.0121699
RightFoot  5.81098 0.0261131 -0.0386644
RightToes  -27.3239 -0.113463 -0.232038
Spine  -2.33527 -0.145509 0.47024
Spine1  -4.72981 -0.182228 1.59586
HEad  -68.3426 -0.55188 6.24993
LeftShoulder1  -1.94126e-019 -3.10601e-018 -2.51263e-017
LeftArm  -14.2014 23.7069 -83.2507
LeftForeArm  32.8067 -14.5041 -2.40766
LeftHand  -0.446257 -1.43448 7.77907
RightShoulder  -4.96962e-017 0 -2.36833e-017
RightArm  -22.1154 -21.6103 74.9863
RightForeArm  58.7124 14.3069 1.18013
RightHand  -0.366422 -1.18437 -10.0562
LeftUpLeg  -7.37854 6.25176 1.81122
LeftLeg  3.57591 13.2801 -0.0248191
LeftFoot  6.39056 -0.0900565 1.64369
LeftToes  -24.1707 1.9075e-006 4.29692e-008
73
root  -41.786 34.8299 11.9493 -169.796 59.9701 -179.648
RightUpLeg  -8.4103 -14.8194 -0.8476
RightLeg  4.99826 -2.20932 -0.0495308
RightFoot  5.32619 0.0255267 -0.0460008
RightToes  -27.1995 -0.113148 -0.232038
Spine  -2.27051 -0.138381 0.486674
Spine1  -4.60113 -0.166553 1.6296
HEad  -68.2645 -0.530539 6.18321
LeftShoulder1  -1.94126e-019 -3.10601e-018 -2.51263e-017
LeftArm  -14.0429 23.6211 -83.2282
LeftForeArm  32.8271 -14.3389 -2.37673
LeftHand  -0.445458 -1.3939 7.82163
RightShoulder  -4.96962e-017 0 -2.36833e-017
RightArm  -21.8362 -21.4371 74.9696
RightForeArm  58.6264 14.3845 1.16975
RightHand  -0.365297 -1.22764 -10.101
LeftUpLeg  -7.33349 6.33958 1.82648
LeftLeg  3.57554 13.4119 -0.0251412
LeftFoot  6.32141 -0.0893888 1.64297
LeftToes  -24.0922 1.9075e-006 4.29692e-008
